<svg width="303" height="211" viewBox="0 0 303 211" fill="none" xmlns="http://www.w3.org/2000/svg">
<path d="M76.3952 95.956C93.9455 95.956 107.882 101.115 118.206 111.433C128.874 121.407 134.208 134.992 134.208 152.188C134.208 169.041 128.53 183.142 117.174 194.491C105.818 205.497 89.4719 211 68.1363 211C46.1124 211 29.2504 203.606 17.5503 188.817C5.85008 173.684 0 154.596 0 131.553C0 109.541 5.16184 89.9372 15.4855 72.7408C25.8092 55.2005 39.0579 40.4116 55.2317 28.3741C71.7496 15.9927 88.6116 6.53466 105.818 0L117.174 24.7628C104.785 29.2339 92.9131 35.7685 81.5571 44.3667C70.5452 52.965 61.4259 62.9389 54.1993 74.2885C47.3169 85.2942 43.7036 96.6438 43.3595 108.337C44.7359 105.586 48.3492 102.835 54.1993 100.083C60.3935 97.3317 67.7922 95.956 76.3952 95.956ZM245.187 95.956C262.738 95.956 276.675 101.115 286.998 111.433C297.666 121.407 303 134.992 303 152.188C303 169.041 297.322 183.142 285.966 194.491C274.61 205.497 258.264 211 236.928 211C214.905 211 198.043 203.606 186.342 188.817C174.642 173.684 168.792 154.596 168.792 131.553C168.792 109.541 173.954 89.9372 184.278 72.7408C194.601 55.2005 207.85 40.4116 224.024 28.3741C240.542 15.9927 257.404 6.53466 274.61 0L285.966 24.7628C273.577 29.2339 261.705 35.7685 250.349 44.3667C239.337 52.965 230.218 62.9389 222.991 74.2885C216.109 85.2942 212.496 96.6438 212.152 108.337C213.528 105.586 217.141 102.835 222.991 100.083C229.186 97.3317 236.584 95.956 245.187 95.956Z" fill="white"/>
</svg>
