<svg width="303" height="211" viewBox="0 0 303 211" fill="none" xmlns="http://www.w3.org/2000/svg">
<path d="M226.991 115.044C209.411 115.044 195.278 109.885 184.592 99.5672C174.251 89.2494 169.08 75.6642 169.08 58.8117C169.08 41.9592 174.768 28.0301 186.143 17.0244C197.519 5.67482 213.72 0 234.747 0C257.154 0 274.044 7.56641 285.42 22.6992C297.14 37.4882 303 56.4042 303 79.4474C303 101.459 297.829 121.235 287.488 138.775C277.147 155.971 263.875 170.76 247.674 183.142C231.817 195.179 215.099 204.465 197.519 211L186.143 186.237C198.553 181.766 210.273 175.231 221.304 166.633C232.679 158.035 241.814 148.233 248.708 137.227C255.947 125.878 259.567 114.356 259.567 102.663C258.188 105.07 254.568 107.822 248.708 110.917C242.848 113.668 235.609 115.044 226.991 115.044ZM57.9113 115.044C40.3311 115.044 26.198 109.885 15.5119 99.5672C5.17065 89.2494 0 75.6642 0 58.8117C0 41.9592 5.68771 28.0301 17.0631 17.0244C28.4386 5.67482 44.8123 0 66.1843 0C88.5905 0 105.481 7.56641 116.857 22.6992C128.577 37.4882 134.437 56.4042 134.437 79.4474C134.437 101.459 129.266 121.235 118.925 138.775C108.584 155.971 95.3123 170.76 79.1109 183.142C62.9096 195.179 46.0188 204.465 28.4386 211L17.0631 186.237C29.8174 181.766 41.7099 175.231 52.7406 166.633C63.7713 158.035 72.7338 148.233 79.628 137.227C86.8669 125.878 90.6587 114.356 91.0034 102.663C89.6246 105.07 86.0051 107.822 80.1451 110.917C74.285 113.668 66.8737 115.044 57.9113 115.044Z" fill="white"/>
</svg>
